<svg id="visual" viewBox="0 0 900 600" width="900" height="600" xmlns="http://www.w3.org/2000/svg" xmlns:xlink="http://www.w3.org/1999/xlink" version="1.1"><path d="M0 127L64 127L64 157L129 157L129 85L193 85L193 127L257 127L257 115L321 115L321 109L386 109L386 85L450 85L450 103L514 103L514 103L579 103L579 157L643 157L643 145L707 145L707 103L771 103L771 145L836 145L836 91L900 91L900 127L900 0L900 0L836 0L836 0L771 0L771 0L707 0L707 0L643 0L643 0L579 0L579 0L514 0L514 0L450 0L450 0L386 0L386 0L321 0L321 0L257 0L257 0L193 0L193 0L129 0L129 0L64 0L64 0L0 0Z" fill="#00aeb4"></path><path d="M0 403L64 403L64 427L129 427L129 445L193 445L193 343L257 343L257 319L321 319L321 199L386 199L386 295L450 295L450 379L514 379L514 175L579 175L579 211L643 211L643 265L707 265L707 313L771 313L771 295L836 295L836 265L900 265L900 169L900 125L900 89L836 89L836 143L771 143L771 101L707 101L707 143L643 143L643 155L579 155L579 101L514 101L514 101L450 101L450 83L386 83L386 107L321 107L321 113L257 113L257 125L193 125L193 83L129 83L129 155L64 155L64 125L0 125Z" fill="#0097cb"></path><path d="M0 499L64 499L64 523L129 523L129 547L193 547L193 499L257 499L257 451L321 451L321 373L386 373L386 385L450 385L450 475L514 475L514 277L579 277L579 373L643 373L643 421L707 421L707 397L771 397L771 463L836 463L836 283L900 283L900 283L900 167L900 263L836 263L836 293L771 293L771 311L707 311L707 263L643 263L643 209L579 209L579 173L514 173L514 377L450 377L450 293L386 293L386 197L321 197L321 317L257 317L257 341L193 341L193 443L129 443L129 425L64 425L64 401L0 401Z" fill="#2877ca"></path><path d="M0 601L64 601L64 601L129 601L129 601L193 601L193 601L257 601L257 601L321 601L321 601L386 601L386 601L450 601L450 601L514 601L514 601L579 601L579 601L643 601L643 601L707 601L707 601L771 601L771 601L836 601L836 601L900 601L900 601L900 281L900 281L836 281L836 461L771 461L771 395L707 395L707 419L643 419L643 371L579 371L579 275L514 275L514 473L450 473L450 383L386 383L386 371L321 371L321 449L257 449L257 497L193 497L193 545L129 545L129 521L64 521L64 497L0 497Z" fill="#654db2"></path></svg>