<svg id="visual" viewBox="0 0 900 600" width="900" height="600" xmlns="http://www.w3.org/2000/svg" xmlns:xlink="http://www.w3.org/1999/xlink" version="1.1"><path d="M0 205L64 205L64 49L129 49L129 199L193 199L193 193L257 193L257 73L321 73L321 61L386 61L386 247L450 247L450 127L514 127L514 163L579 163L579 187L643 187L643 259L707 259L707 73L771 73L771 115L836 115L836 223L900 223L900 133L900 0L900 0L836 0L836 0L771 0L771 0L707 0L707 0L643 0L643 0L579 0L579 0L514 0L514 0L450 0L450 0L386 0L386 0L321 0L321 0L257 0L257 0L193 0L193 0L129 0L129 0L64 0L64 0L0 0Z" fill="#00aeb4"></path><path d="M0 331L64 331L64 421L129 421L129 283L193 283L193 487L257 487L257 469L321 469L321 325L386 325L386 289L450 289L450 409L514 409L514 481L579 481L579 265L643 265L643 421L707 421L707 391L771 391L771 403L836 403L836 421L900 421L900 367L900 131L900 221L836 221L836 113L771 113L771 71L707 71L707 257L643 257L643 185L579 185L579 161L514 161L514 125L450 125L450 245L386 245L386 59L321 59L321 71L257 71L257 191L193 191L193 197L129 197L129 47L64 47L64 203L0 203Z" fill="#0097cb"></path><path d="M0 427L64 427L64 445L129 445L129 421L193 421L193 559L257 559L257 499L321 499L321 415L386 415L386 409L450 409L450 481L514 481L514 505L579 505L579 409L643 409L643 583L707 583L707 445L771 445L771 523L836 523L836 445L900 445L900 391L900 365L900 419L836 419L836 401L771 401L771 389L707 389L707 419L643 419L643 263L579 263L579 479L514 479L514 407L450 407L450 287L386 287L386 323L321 323L321 467L257 467L257 485L193 485L193 281L129 281L129 419L64 419L64 329L0 329Z" fill="#2877ca"></path><path d="M0 601L64 601L64 601L129 601L129 601L193 601L193 601L257 601L257 601L321 601L321 601L386 601L386 601L450 601L450 601L514 601L514 601L579 601L579 601L643 601L643 601L707 601L707 601L771 601L771 601L836 601L836 601L900 601L900 601L900 389L900 443L836 443L836 521L771 521L771 443L707 443L707 581L643 581L643 407L579 407L579 503L514 503L514 479L450 479L450 407L386 407L386 413L321 413L321 497L257 497L257 557L193 557L193 419L129 419L129 443L64 443L64 425L0 425Z" fill="#654db2"></path></svg>