<svg id="visual" viewBox="0 0 900 600" width="900" height="600" xmlns="http://www.w3.org/2000/svg" xmlns:xlink="http://www.w3.org/1999/xlink" version="1.1"><path d="M0 85L64 85L64 295L129 295L129 73L193 73L193 139L257 139L257 91L321 91L321 295L386 295L386 301L450 301L450 241L514 241L514 187L579 187L579 205L643 205L643 61L707 61L707 199L771 199L771 163L836 163L836 307L900 307L900 97L900 0L900 0L836 0L836 0L771 0L771 0L707 0L707 0L643 0L643 0L579 0L579 0L514 0L514 0L450 0L450 0L386 0L386 0L321 0L321 0L257 0L257 0L193 0L193 0L129 0L129 0L64 0L64 0L0 0Z" fill="#00aeb4"></path><path d="M0 229L64 229L64 373L129 373L129 235L193 235L193 235L257 235L257 157L321 157L321 505L386 505L386 361L450 361L450 433L514 433L514 343L579 343L579 343L643 343L643 211L707 211L707 385L771 385L771 373L836 373L836 529L900 529L900 211L900 95L900 305L836 305L836 161L771 161L771 197L707 197L707 59L643 59L643 203L579 203L579 185L514 185L514 239L450 239L450 299L386 299L386 293L321 293L321 89L257 89L257 137L193 137L193 71L129 71L129 293L64 293L64 83L0 83Z" fill="#0097cb"></path><path d="M0 553L64 553L64 505L129 505L129 481L193 481L193 541L257 541L257 583L321 583L321 553L386 553L386 505L450 505L450 487L514 487L514 469L579 469L579 553L643 553L643 517L707 517L707 457L771 457L771 565L836 565L836 583L900 583L900 493L900 209L900 527L836 527L836 371L771 371L771 383L707 383L707 209L643 209L643 341L579 341L579 341L514 341L514 431L450 431L450 359L386 359L386 503L321 503L321 155L257 155L257 233L193 233L193 233L129 233L129 371L64 371L64 227L0 227Z" fill="#2877ca"></path><path d="M0 601L64 601L64 601L129 601L129 601L193 601L193 601L257 601L257 601L321 601L321 601L386 601L386 601L450 601L450 601L514 601L514 601L579 601L579 601L643 601L643 601L707 601L707 601L771 601L771 601L836 601L836 601L900 601L900 601L900 491L900 581L836 581L836 563L771 563L771 455L707 455L707 515L643 515L643 551L579 551L579 467L514 467L514 485L450 485L450 503L386 503L386 551L321 551L321 581L257 581L257 539L193 539L193 479L129 479L129 503L64 503L64 551L0 551Z" fill="#654db2"></path></svg>