<svg id="visual" viewBox="0 0 900 600" width="900" height="600" xmlns="http://www.w3.org/2000/svg" xmlns:xlink="http://www.w3.org/1999/xlink" version="1.1"><path d="M0 319L64 319L64 217L129 217L129 55L193 55L193 91L257 91L257 181L321 181L321 121L386 121L386 367L450 367L450 301L514 301L514 103L579 103L579 253L643 253L643 259L707 259L707 79L771 79L771 139L836 139L836 217L900 217L900 61L900 0L900 0L836 0L836 0L771 0L771 0L707 0L707 0L643 0L643 0L579 0L579 0L514 0L514 0L450 0L450 0L386 0L386 0L321 0L321 0L257 0L257 0L193 0L193 0L129 0L129 0L64 0L64 0L0 0Z" fill="#00aeb4"></path><path d="M0 421L64 421L64 391L129 391L129 115L193 115L193 205L257 205L257 205L321 205L321 169L386 169L386 511L450 511L450 361L514 361L514 127L579 127L579 331L643 331L643 385L707 385L707 223L771 223L771 247L836 247L836 367L900 367L900 109L900 59L900 215L836 215L836 137L771 137L771 77L707 77L707 257L643 257L643 251L579 251L579 101L514 101L514 299L450 299L450 365L386 365L386 119L321 119L321 179L257 179L257 89L193 89L193 53L129 53L129 215L64 215L64 317L0 317Z" fill="#0097cb"></path><path d="M0 487L64 487L64 463L129 463L129 331L193 331L193 313L257 313L257 421L321 421L321 271L386 271L386 547L450 547L450 487L514 487L514 211L579 211L579 367L643 367L643 421L707 421L707 361L771 361L771 415L836 415L836 541L900 541L900 151L900 107L900 365L836 365L836 245L771 245L771 221L707 221L707 383L643 383L643 329L579 329L579 125L514 125L514 359L450 359L450 509L386 509L386 167L321 167L321 203L257 203L257 203L193 203L193 113L129 113L129 389L64 389L64 419L0 419Z" fill="#2877ca"></path><path d="M0 601L64 601L64 601L129 601L129 601L193 601L193 601L257 601L257 601L321 601L321 601L386 601L386 601L450 601L450 601L514 601L514 601L579 601L579 601L643 601L643 601L707 601L707 601L771 601L771 601L836 601L836 601L900 601L900 601L900 149L900 539L836 539L836 413L771 413L771 359L707 359L707 419L643 419L643 365L579 365L579 209L514 209L514 485L450 485L450 545L386 545L386 269L321 269L321 419L257 419L257 311L193 311L193 329L129 329L129 461L64 461L64 485L0 485Z" fill="#654db2"></path></svg>