<svg id="visual" viewBox="0 0 900 600" width="900" height="600" xmlns="http://www.w3.org/2000/svg" xmlns:xlink="http://www.w3.org/1999/xlink" version="1.1"><path d="M0 247L64 247L64 127L129 127L129 307L193 307L193 121L257 121L257 103L321 103L321 193L386 193L386 271L450 271L450 217L514 217L514 211L579 211L579 187L643 187L643 121L707 121L707 229L771 229L771 175L836 175L836 49L900 49L900 157L900 0L900 0L836 0L836 0L771 0L771 0L707 0L707 0L643 0L643 0L579 0L579 0L514 0L514 0L450 0L450 0L386 0L386 0L321 0L321 0L257 0L257 0L193 0L193 0L129 0L129 0L64 0L64 0L0 0Z" fill="#00aeb4"></path><path d="M0 349L64 349L64 175L129 175L129 373L193 373L193 307L257 307L257 313L321 313L321 361L386 361L386 409L450 409L450 373L514 373L514 451L579 451L579 415L643 415L643 283L707 283L707 373L771 373L771 295L836 295L836 163L900 163L900 313L900 155L900 47L836 47L836 173L771 173L771 227L707 227L707 119L643 119L643 185L579 185L579 209L514 209L514 215L450 215L450 269L386 269L386 191L321 191L321 101L257 101L257 119L193 119L193 305L129 305L129 125L64 125L64 245L0 245Z" fill="#0097cb"></path><path d="M0 487L64 487L64 469L129 469L129 451L193 451L193 553L257 553L257 511L321 511L321 481L386 481L386 523L450 523L450 577L514 577L514 559L579 559L579 523L643 523L643 493L707 493L707 487L771 487L771 511L836 511L836 427L900 427L900 541L900 311L900 161L836 161L836 293L771 293L771 371L707 371L707 281L643 281L643 413L579 413L579 449L514 449L514 371L450 371L450 407L386 407L386 359L321 359L321 311L257 311L257 305L193 305L193 371L129 371L129 173L64 173L64 347L0 347Z" fill="#2877ca"></path><path d="M0 601L64 601L64 601L129 601L129 601L193 601L193 601L257 601L257 601L321 601L321 601L386 601L386 601L450 601L450 601L514 601L514 601L579 601L579 601L643 601L643 601L707 601L707 601L771 601L771 601L836 601L836 601L900 601L900 601L900 539L900 425L836 425L836 509L771 509L771 485L707 485L707 491L643 491L643 521L579 521L579 557L514 557L514 575L450 575L450 521L386 521L386 479L321 479L321 509L257 509L257 551L193 551L193 449L129 449L129 467L64 467L64 485L0 485Z" fill="#654db2"></path></svg>