<svg id="visual" viewBox="0 0 900 600" width="900" height="600" xmlns="http://www.w3.org/2000/svg" xmlns:xlink="http://www.w3.org/1999/xlink" version="1.1"><path d="M0 145L64 145L64 109L129 109L129 61L193 61L193 67L257 67L257 187L321 187L321 175L386 175L386 61L450 61L450 25L514 25L514 133L579 133L579 91L643 91L643 181L707 181L707 205L771 205L771 85L836 85L836 103L900 103L900 127L900 0L900 0L836 0L836 0L771 0L771 0L707 0L707 0L643 0L643 0L579 0L579 0L514 0L514 0L450 0L450 0L386 0L386 0L321 0L321 0L257 0L257 0L193 0L193 0L129 0L129 0L64 0L64 0L0 0Z" fill="#00aeb4"></path><path d="M0 427L64 427L64 331L129 331L129 175L193 175L193 385L257 385L257 313L321 313L321 307L386 307L386 367L450 367L450 505L514 505L514 331L579 331L579 469L643 469L643 463L707 463L707 481L771 481L771 517L836 517L836 433L900 433L900 199L900 125L900 101L836 101L836 83L771 83L771 203L707 203L707 179L643 179L643 89L579 89L579 131L514 131L514 23L450 23L450 59L386 59L386 173L321 173L321 185L257 185L257 65L193 65L193 59L129 59L129 107L64 107L64 143L0 143Z" fill="#0097cb"></path><path d="M0 553L64 553L64 469L129 469L129 559L193 559L193 475L257 475L257 445L321 445L321 439L386 439L386 571L450 571L450 553L514 553L514 547L579 547L579 517L643 517L643 559L707 559L707 535L771 535L771 559L836 559L836 523L900 523L900 523L900 197L900 431L836 431L836 515L771 515L771 479L707 479L707 461L643 461L643 467L579 467L579 329L514 329L514 503L450 503L450 365L386 365L386 305L321 305L321 311L257 311L257 383L193 383L193 173L129 173L129 329L64 329L64 425L0 425Z" fill="#2877ca"></path><path d="M0 601L64 601L64 601L129 601L129 601L193 601L193 601L257 601L257 601L321 601L321 601L386 601L386 601L450 601L450 601L514 601L514 601L579 601L579 601L643 601L643 601L707 601L707 601L771 601L771 601L836 601L836 601L900 601L900 601L900 521L900 521L836 521L836 557L771 557L771 533L707 533L707 557L643 557L643 515L579 515L579 545L514 545L514 551L450 551L450 569L386 569L386 437L321 437L321 443L257 443L257 473L193 473L193 557L129 557L129 467L64 467L64 551L0 551Z" fill="#654db2"></path></svg>