<svg id="visual" viewBox="0 0 900 600" width="900" height="600" xmlns="http://www.w3.org/2000/svg" xmlns:xlink="http://www.w3.org/1999/xlink" version="1.1"><path d="M0 361L64 361L64 421L129 421L129 349L193 349L193 217L257 217L257 403L321 403L321 253L386 253L386 73L450 73L450 31L514 31L514 295L579 295L579 223L643 223L643 151L707 151L707 235L771 235L771 367L836 367L836 181L900 181L900 85L900 0L900 0L836 0L836 0L771 0L771 0L707 0L707 0L643 0L643 0L579 0L579 0L514 0L514 0L450 0L450 0L386 0L386 0L321 0L321 0L257 0L257 0L193 0L193 0L129 0L129 0L64 0L64 0L0 0Z" fill="#00aeb4"></path><path d="M0 391L64 391L64 439L129 439L129 487L193 487L193 385L257 385L257 457L321 457L321 367L386 367L386 199L450 199L450 199L514 199L514 355L579 355L579 361L643 361L643 223L707 223L707 385L771 385L771 433L836 433L836 265L900 265L900 151L900 83L900 179L836 179L836 365L771 365L771 233L707 233L707 149L643 149L643 221L579 221L579 293L514 293L514 29L450 29L450 71L386 71L386 251L321 251L321 401L257 401L257 215L193 215L193 347L129 347L129 419L64 419L64 359L0 359Z" fill="#0097cb"></path><path d="M0 481L64 481L64 493L129 493L129 511L193 511L193 541L257 541L257 517L321 517L321 391L386 391L386 361L450 361L450 295L514 295L514 559L579 559L579 559L643 559L643 421L707 421L707 559L771 559L771 481L836 481L836 355L900 355L900 319L900 149L900 263L836 263L836 431L771 431L771 383L707 383L707 221L643 221L643 359L579 359L579 353L514 353L514 197L450 197L450 197L386 197L386 365L321 365L321 455L257 455L257 383L193 383L193 485L129 485L129 437L64 437L64 389L0 389Z" fill="#2877ca"></path><path d="M0 601L64 601L64 601L129 601L129 601L193 601L193 601L257 601L257 601L321 601L321 601L386 601L386 601L450 601L450 601L514 601L514 601L579 601L579 601L643 601L643 601L707 601L707 601L771 601L771 601L836 601L836 601L900 601L900 601L900 317L900 353L836 353L836 479L771 479L771 557L707 557L707 419L643 419L643 557L579 557L579 557L514 557L514 293L450 293L450 359L386 359L386 389L321 389L321 515L257 515L257 539L193 539L193 509L129 509L129 491L64 491L64 479L0 479Z" fill="#654db2"></path></svg>