<svg id="visual" viewBox="0 0 900 600" width="900" height="600" xmlns="http://www.w3.org/2000/svg" xmlns:xlink="http://www.w3.org/1999/xlink" version="1.1"><path d="M0 295L64 295L64 265L129 265L129 85L193 85L193 181L257 181L257 133L321 133L321 175L386 175L386 91L450 91L450 115L514 115L514 421L579 421L579 295L643 295L643 223L707 223L707 49L771 49L771 79L836 79L836 157L900 157L900 277L900 0L900 0L836 0L836 0L771 0L771 0L707 0L707 0L643 0L643 0L579 0L579 0L514 0L514 0L450 0L450 0L386 0L386 0L321 0L321 0L257 0L257 0L193 0L193 0L129 0L129 0L64 0L64 0L0 0Z" fill="#00aeb4"></path><path d="M0 439L64 439L64 307L129 307L129 253L193 253L193 271L257 271L257 229L321 229L321 277L386 277L386 145L450 145L450 157L514 157L514 463L579 463L579 319L643 319L643 307L707 307L707 151L771 151L771 205L836 205L836 241L900 241L900 355L900 275L900 155L836 155L836 77L771 77L771 47L707 47L707 221L643 221L643 293L579 293L579 419L514 419L514 113L450 113L450 89L386 89L386 173L321 173L321 131L257 131L257 179L193 179L193 83L129 83L129 263L64 263L64 293L0 293Z" fill="#0097cb"></path><path d="M0 517L64 517L64 367L129 367L129 415L193 415L193 379L257 379L257 433L321 433L321 391L386 391L386 481L450 481L450 493L514 493L514 511L579 511L579 541L643 541L643 559L707 559L707 511L771 511L771 475L836 475L836 397L900 397L900 475L900 353L900 239L836 239L836 203L771 203L771 149L707 149L707 305L643 305L643 317L579 317L579 461L514 461L514 155L450 155L450 143L386 143L386 275L321 275L321 227L257 227L257 269L193 269L193 251L129 251L129 305L64 305L64 437L0 437Z" fill="#2877ca"></path><path d="M0 601L64 601L64 601L129 601L129 601L193 601L193 601L257 601L257 601L321 601L321 601L386 601L386 601L450 601L450 601L514 601L514 601L579 601L579 601L643 601L643 601L707 601L707 601L771 601L771 601L836 601L836 601L900 601L900 601L900 473L900 395L836 395L836 473L771 473L771 509L707 509L707 557L643 557L643 539L579 539L579 509L514 509L514 491L450 491L450 479L386 479L386 389L321 389L321 431L257 431L257 377L193 377L193 413L129 413L129 365L64 365L64 515L0 515Z" fill="#654db2"></path></svg>