<svg id="visual" viewBox="0 0 900 600" width="900" height="600" xmlns="http://www.w3.org/2000/svg" xmlns:xlink="http://www.w3.org/1999/xlink" version="1.1"><path d="M0 61L64 61L64 349L129 349L129 223L193 223L193 193L257 193L257 115L321 115L321 181L386 181L386 127L450 127L450 271L514 271L514 253L579 253L579 109L643 109L643 277L707 277L707 193L771 193L771 37L836 37L836 277L900 277L900 211L900 0L900 0L836 0L836 0L771 0L771 0L707 0L707 0L643 0L643 0L579 0L579 0L514 0L514 0L450 0L450 0L386 0L386 0L321 0L321 0L257 0L257 0L193 0L193 0L129 0L129 0L64 0L64 0L0 0Z" fill="#00aeb4"></path><path d="M0 235L64 235L64 469L129 469L129 343L193 343L193 271L257 271L257 265L321 265L321 271L386 271L386 205L450 205L450 433L514 433L514 307L579 307L579 253L643 253L643 301L707 301L707 349L771 349L771 91L836 91L836 397L900 397L900 319L900 209L900 275L836 275L836 35L771 35L771 191L707 191L707 275L643 275L643 107L579 107L579 251L514 251L514 269L450 269L450 125L386 125L386 179L321 179L321 113L257 113L257 191L193 191L193 221L129 221L129 347L64 347L64 59L0 59Z" fill="#0097cb"></path><path d="M0 409L64 409L64 505L129 505L129 439L193 439L193 415L257 415L257 397L321 397L321 463L386 463L386 379L450 379L450 493L514 493L514 493L579 493L579 409L643 409L643 403L707 403L707 493L771 493L771 295L836 295L836 415L900 415L900 415L900 317L900 395L836 395L836 89L771 89L771 347L707 347L707 299L643 299L643 251L579 251L579 305L514 305L514 431L450 431L450 203L386 203L386 269L321 269L321 263L257 263L257 269L193 269L193 341L129 341L129 467L64 467L64 233L0 233Z" fill="#2877ca"></path><path d="M0 601L64 601L64 601L129 601L129 601L193 601L193 601L257 601L257 601L321 601L321 601L386 601L386 601L450 601L450 601L514 601L514 601L579 601L579 601L643 601L643 601L707 601L707 601L771 601L771 601L836 601L836 601L900 601L900 601L900 413L900 413L836 413L836 293L771 293L771 491L707 491L707 401L643 401L643 407L579 407L579 491L514 491L514 491L450 491L450 377L386 377L386 461L321 461L321 395L257 395L257 413L193 413L193 437L129 437L129 503L64 503L64 407L0 407Z" fill="#654db2"></path></svg>