<svg id="visual" viewBox="0 0 900 600" width="900" height="600" xmlns="http://www.w3.org/2000/svg" xmlns:xlink="http://www.w3.org/1999/xlink" version="1.1"><path d="M0 187L64 187L64 73L129 73L129 85L193 85L193 193L257 193L257 103L321 103L321 133L386 133L386 175L450 175L450 49L514 49L514 103L579 103L579 175L643 175L643 193L707 193L707 97L771 97L771 175L836 175L836 79L900 79L900 61L900 0L900 0L836 0L836 0L771 0L771 0L707 0L707 0L643 0L643 0L579 0L579 0L514 0L514 0L450 0L450 0L386 0L386 0L321 0L321 0L257 0L257 0L193 0L193 0L129 0L129 0L64 0L64 0L0 0Z" fill="#00aeb4"></path><path d="M0 241L64 241L64 403L129 403L129 163L193 163L193 433L257 433L257 361L321 361L321 391L386 391L386 445L450 445L450 403L514 403L514 277L579 277L579 427L643 427L643 301L707 301L707 181L771 181L771 355L836 355L836 223L900 223L900 283L900 59L900 77L836 77L836 173L771 173L771 95L707 95L707 191L643 191L643 173L579 173L579 101L514 101L514 47L450 47L450 173L386 173L386 131L321 131L321 101L257 101L257 191L193 191L193 83L129 83L129 71L64 71L64 185L0 185Z" fill="#0097cb"></path><path d="M0 373L64 373L64 487L129 487L129 307L193 307L193 487L257 487L257 457L321 457L321 559L386 559L386 577L450 577L450 541L514 541L514 319L579 319L579 547L643 547L643 433L707 433L707 271L771 271L771 409L836 409L836 349L900 349L900 325L900 281L900 221L836 221L836 353L771 353L771 179L707 179L707 299L643 299L643 425L579 425L579 275L514 275L514 401L450 401L450 443L386 443L386 389L321 389L321 359L257 359L257 431L193 431L193 161L129 161L129 401L64 401L64 239L0 239Z" fill="#2877ca"></path><path d="M0 601L64 601L64 601L129 601L129 601L193 601L193 601L257 601L257 601L321 601L321 601L386 601L386 601L450 601L450 601L514 601L514 601L579 601L579 601L643 601L643 601L707 601L707 601L771 601L771 601L836 601L836 601L900 601L900 601L900 323L900 347L836 347L836 407L771 407L771 269L707 269L707 431L643 431L643 545L579 545L579 317L514 317L514 539L450 539L450 575L386 575L386 557L321 557L321 455L257 455L257 485L193 485L193 305L129 305L129 485L64 485L64 371L0 371Z" fill="#654db2"></path></svg>