<svg id="visual" viewBox="0 0 900 600" width="900" height="600" xmlns="http://www.w3.org/2000/svg" xmlns:xlink="http://www.w3.org/1999/xlink" version="1.1"><path d="M0 205L64 205L64 259L129 259L129 97L193 97L193 67L257 67L257 229L321 229L321 145L386 145L386 199L450 199L450 211L514 211L514 319L579 319L579 151L643 151L643 61L707 61L707 235L771 235L771 121L836 121L836 109L900 109L900 55L900 0L900 0L836 0L836 0L771 0L771 0L707 0L707 0L643 0L643 0L579 0L579 0L514 0L514 0L450 0L450 0L386 0L386 0L321 0L321 0L257 0L257 0L193 0L193 0L129 0L129 0L64 0L64 0L0 0Z" fill="#00aeb4"></path><path d="M0 235L64 235L64 463L129 463L129 235L193 235L193 211L257 211L257 277L321 277L321 211L386 211L386 319L450 319L450 307L514 307L514 475L579 475L579 181L643 181L643 169L707 169L707 415L771 415L771 295L836 295L836 259L900 259L900 247L900 53L900 107L836 107L836 119L771 119L771 233L707 233L707 59L643 59L643 149L579 149L579 317L514 317L514 209L450 209L450 197L386 197L386 143L321 143L321 227L257 227L257 65L193 65L193 95L129 95L129 257L64 257L64 203L0 203Z" fill="#0097cb"></path><path d="M0 463L64 463L64 529L129 529L129 577L193 577L193 565L257 565L257 457L321 457L321 577L386 577L386 583L450 583L450 571L514 571L514 541L579 541L579 511L643 511L643 463L707 463L707 523L771 523L771 427L836 427L836 493L900 493L900 445L900 245L900 257L836 257L836 293L771 293L771 413L707 413L707 167L643 167L643 179L579 179L579 473L514 473L514 305L450 305L450 317L386 317L386 209L321 209L321 275L257 275L257 209L193 209L193 233L129 233L129 461L64 461L64 233L0 233Z" fill="#2877ca"></path><path d="M0 601L64 601L64 601L129 601L129 601L193 601L193 601L257 601L257 601L321 601L321 601L386 601L386 601L450 601L450 601L514 601L514 601L579 601L579 601L643 601L643 601L707 601L707 601L771 601L771 601L836 601L836 601L900 601L900 601L900 443L900 491L836 491L836 425L771 425L771 521L707 521L707 461L643 461L643 509L579 509L579 539L514 539L514 569L450 569L450 581L386 581L386 575L321 575L321 455L257 455L257 563L193 563L193 575L129 575L129 527L64 527L64 461L0 461Z" fill="#654db2"></path></svg>