<svg id="visual" viewBox="0 0 900 600" width="900" height="600" xmlns="http://www.w3.org/2000/svg" xmlns:xlink="http://www.w3.org/1999/xlink" version="1.1"><path d="M0 91L64 91L64 49L129 49L129 151L193 151L193 49L257 49L257 109L321 109L321 61L386 61L386 169L450 169L450 109L514 109L514 175L579 175L579 49L643 49L643 163L707 163L707 217L771 217L771 49L836 49L836 85L900 85L900 139L900 0L900 0L836 0L836 0L771 0L771 0L707 0L707 0L643 0L643 0L579 0L579 0L514 0L514 0L450 0L450 0L386 0L386 0L321 0L321 0L257 0L257 0L193 0L193 0L129 0L129 0L64 0L64 0L0 0Z" fill="#00aeb4"></path><path d="M0 157L64 157L64 157L129 157L129 277L193 277L193 91L257 91L257 223L321 223L321 127L386 127L386 235L450 235L450 193L514 193L514 193L579 193L579 223L643 223L643 247L707 247L707 283L771 283L771 199L836 199L836 199L900 199L900 181L900 137L900 83L836 83L836 47L771 47L771 215L707 215L707 161L643 161L643 47L579 47L579 173L514 173L514 107L450 107L450 167L386 167L386 59L321 59L321 107L257 107L257 47L193 47L193 149L129 149L129 47L64 47L64 89L0 89Z" fill="#0097cb"></path><path d="M0 325L64 325L64 307L129 307L129 457L193 457L193 541L257 541L257 415L321 415L321 397L386 397L386 289L450 289L450 511L514 511L514 457L579 457L579 553L643 553L643 457L707 457L707 511L771 511L771 499L836 499L836 343L900 343L900 229L900 179L900 197L836 197L836 197L771 197L771 281L707 281L707 245L643 245L643 221L579 221L579 191L514 191L514 191L450 191L450 233L386 233L386 125L321 125L321 221L257 221L257 89L193 89L193 275L129 275L129 155L64 155L64 155L0 155Z" fill="#2877ca"></path><path d="M0 601L64 601L64 601L129 601L129 601L193 601L193 601L257 601L257 601L321 601L321 601L386 601L386 601L450 601L450 601L514 601L514 601L579 601L579 601L643 601L643 601L707 601L707 601L771 601L771 601L836 601L836 601L900 601L900 601L900 227L900 341L836 341L836 497L771 497L771 509L707 509L707 455L643 455L643 551L579 551L579 455L514 455L514 509L450 509L450 287L386 287L386 395L321 395L321 413L257 413L257 539L193 539L193 455L129 455L129 305L64 305L64 323L0 323Z" fill="#654db2"></path></svg>