<svg id="visual" viewBox="0 0 900 600" width="900" height="600" xmlns="http://www.w3.org/2000/svg" xmlns:xlink="http://www.w3.org/1999/xlink" version="1.1"><path d="M0 49L64 49L64 97L129 97L129 145L193 145L193 19L257 19L257 163L321 163L321 121L386 121L386 133L450 133L450 103L514 103L514 121L579 121L579 103L643 103L643 139L707 139L707 169L771 169L771 127L836 127L836 73L900 73L900 115L900 0L900 0L836 0L836 0L771 0L771 0L707 0L707 0L643 0L643 0L579 0L579 0L514 0L514 0L450 0L450 0L386 0L386 0L321 0L321 0L257 0L257 0L193 0L193 0L129 0L129 0L64 0L64 0L0 0Z" fill="#00aeb4"></path><path d="M0 283L64 283L64 259L129 259L129 325L193 325L193 199L257 199L257 289L321 289L321 235L386 235L386 163L450 163L450 151L514 151L514 205L579 205L579 241L643 241L643 289L707 289L707 307L771 307L771 259L836 259L836 217L900 217L900 235L900 113L900 71L836 71L836 125L771 125L771 167L707 167L707 137L643 137L643 101L579 101L579 119L514 119L514 101L450 101L450 131L386 131L386 119L321 119L321 161L257 161L257 17L193 17L193 143L129 143L129 95L64 95L64 47L0 47Z" fill="#0097cb"></path><path d="M0 553L64 553L64 529L129 529L129 577L193 577L193 313L257 313L257 409L321 409L321 319L386 319L386 511L450 511L450 331L514 331L514 313L579 313L579 355L643 355L643 547L707 547L707 415L771 415L771 565L836 565L836 385L900 385L900 427L900 233L900 215L836 215L836 257L771 257L771 305L707 305L707 287L643 287L643 239L579 239L579 203L514 203L514 149L450 149L450 161L386 161L386 233L321 233L321 287L257 287L257 197L193 197L193 323L129 323L129 257L64 257L64 281L0 281Z" fill="#2877ca"></path><path d="M0 601L64 601L64 601L129 601L129 601L193 601L193 601L257 601L257 601L321 601L321 601L386 601L386 601L450 601L450 601L514 601L514 601L579 601L579 601L643 601L643 601L707 601L707 601L771 601L771 601L836 601L836 601L900 601L900 601L900 425L900 383L836 383L836 563L771 563L771 413L707 413L707 545L643 545L643 353L579 353L579 311L514 311L514 329L450 329L450 509L386 509L386 317L321 317L321 407L257 407L257 311L193 311L193 575L129 575L129 527L64 527L64 551L0 551Z" fill="#654db2"></path></svg>