<svg id="visual" viewBox="0 0 900 600" width="900" height="600" xmlns="http://www.w3.org/2000/svg" xmlns:xlink="http://www.w3.org/1999/xlink" version="1.1"><path d="M0 319L64 319L64 217L129 217L129 253L193 253L193 187L257 187L257 199L321 199L321 133L386 133L386 241L450 241L450 187L514 187L514 169L579 169L579 337L643 337L643 151L707 151L707 253L771 253L771 289L836 289L836 73L900 73L900 187L900 0L900 0L836 0L836 0L771 0L771 0L707 0L707 0L643 0L643 0L579 0L579 0L514 0L514 0L450 0L450 0L386 0L386 0L321 0L321 0L257 0L257 0L193 0L193 0L129 0L129 0L64 0L64 0L0 0Z" fill="#00aeb4"></path><path d="M0 439L64 439L64 337L129 337L129 289L193 289L193 265L257 265L257 355L321 355L321 205L386 205L386 415L450 415L450 373L514 373L514 241L579 241L579 493L643 493L643 343L707 343L707 367L771 367L771 541L836 541L836 133L900 133L900 205L900 185L900 71L836 71L836 287L771 287L771 251L707 251L707 149L643 149L643 335L579 335L579 167L514 167L514 185L450 185L450 239L386 239L386 131L321 131L321 197L257 197L257 185L193 185L193 251L129 251L129 215L64 215L64 317L0 317Z" fill="#0097cb"></path><path d="M0 577L64 577L64 427L129 427L129 487L193 487L193 541L257 541L257 559L321 559L321 493L386 493L386 583L450 583L450 559L514 559L514 529L579 529L579 559L643 559L643 547L707 547L707 451L771 451L771 577L836 577L836 553L900 553L900 427L900 203L900 131L836 131L836 539L771 539L771 365L707 365L707 341L643 341L643 491L579 491L579 239L514 239L514 371L450 371L450 413L386 413L386 203L321 203L321 353L257 353L257 263L193 263L193 287L129 287L129 335L64 335L64 437L0 437Z" fill="#2877ca"></path><path d="M0 601L64 601L64 601L129 601L129 601L193 601L193 601L257 601L257 601L321 601L321 601L386 601L386 601L450 601L450 601L514 601L514 601L579 601L579 601L643 601L643 601L707 601L707 601L771 601L771 601L836 601L836 601L900 601L900 601L900 425L900 551L836 551L836 575L771 575L771 449L707 449L707 545L643 545L643 557L579 557L579 527L514 527L514 557L450 557L450 581L386 581L386 491L321 491L321 557L257 557L257 539L193 539L193 485L129 485L129 425L64 425L64 575L0 575Z" fill="#654db2"></path></svg>