<svg id="visual" viewBox="0 0 900 600" width="900" height="600" xmlns="http://www.w3.org/2000/svg" xmlns:xlink="http://www.w3.org/1999/xlink" version="1.1"><g transform="translate(444.8756438423068 257.98963268408926)"><path d="M140.2 -176.4C179.6 -164.3 208.2 -120.6 220.9 -73.6C233.6 -26.7 230.5 23.6 208.8 61C187.2 98.3 147.1 122.8 109.2 160.5C71.3 198.2 35.7 249.1 -8.9 261.4C-53.5 273.6 -107 247.2 -135.7 206.6C-164.4 165.9 -168.2 110.9 -183.2 60.6C-198.1 10.2 -224.1 -35.5 -216.9 -74.4C-209.7 -113.2 -169.2 -145.2 -127.5 -156.7C-85.8 -168.1 -42.9 -159.1 3.7 -164.2C50.4 -169.3 100.7 -188.6 140.2 -176.4" fill="#2c3e50"></path></g></svg>