<svg id="visual" viewBox="0 0 900 600" width="900" height="600" xmlns="http://www.w3.org/2000/svg" xmlns:xlink="http://www.w3.org/1999/xlink" version="1.1"><path d="M0 139L64 139L64 37L129 37L129 55L193 55L193 79L257 79L257 175L321 175L321 103L386 103L386 163L450 163L450 169L514 169L514 175L579 175L579 121L643 121L643 79L707 79L707 121L771 121L771 55L836 55L836 139L900 139L900 127L900 0L900 0L836 0L836 0L771 0L771 0L707 0L707 0L643 0L643 0L579 0L579 0L514 0L514 0L450 0L450 0L386 0L386 0L321 0L321 0L257 0L257 0L193 0L193 0L129 0L129 0L64 0L64 0L0 0Z" fill="#00aeb4"></path><path d="M0 379L64 379L64 139L129 139L129 169L193 169L193 289L257 289L257 217L321 217L321 283L386 283L386 295L450 295L450 481L514 481L514 427L579 427L579 265L643 265L643 319L707 319L707 283L771 283L771 475L836 475L836 415L900 415L900 391L900 125L900 137L836 137L836 53L771 53L771 119L707 119L707 77L643 77L643 119L579 119L579 173L514 173L514 167L450 167L450 161L386 161L386 101L321 101L321 173L257 173L257 77L193 77L193 53L129 53L129 35L64 35L64 137L0 137Z" fill="#0097cb"></path><path d="M0 451L64 451L64 271L129 271L129 397L193 397L193 427L257 427L257 283L321 283L321 475L386 475L386 475L450 475L450 541L514 541L514 451L579 451L579 451L643 451L643 445L707 445L707 379L771 379L771 529L836 529L836 487L900 487L900 493L900 389L900 413L836 413L836 473L771 473L771 281L707 281L707 317L643 317L643 263L579 263L579 425L514 425L514 479L450 479L450 293L386 293L386 281L321 281L321 215L257 215L257 287L193 287L193 167L129 167L129 137L64 137L64 377L0 377Z" fill="#2877ca"></path><path d="M0 601L64 601L64 601L129 601L129 601L193 601L193 601L257 601L257 601L321 601L321 601L386 601L386 601L450 601L450 601L514 601L514 601L579 601L579 601L643 601L643 601L707 601L707 601L771 601L771 601L836 601L836 601L900 601L900 601L900 491L900 485L836 485L836 527L771 527L771 377L707 377L707 443L643 443L643 449L579 449L579 449L514 449L514 539L450 539L450 473L386 473L386 473L321 473L321 281L257 281L257 425L193 425L193 395L129 395L129 269L64 269L64 449L0 449Z" fill="#654db2"></path></svg>