<svg id="visual" viewBox="0 0 900 600" width="900" height="600" xmlns="http://www.w3.org/2000/svg" xmlns:xlink="http://www.w3.org/1999/xlink" version="1.1"><path d="M0 103L64 103L64 55L129 55L129 85L193 85L193 133L257 133L257 37L321 37L321 49L386 49L386 55L450 55L450 49L514 49L514 61L579 61L579 109L643 109L643 37L707 37L707 97L771 97L771 37L836 37L836 103L900 103L900 43L900 0L900 0L836 0L836 0L771 0L771 0L707 0L707 0L643 0L643 0L579 0L579 0L514 0L514 0L450 0L450 0L386 0L386 0L321 0L321 0L257 0L257 0L193 0L193 0L129 0L129 0L64 0L64 0L0 0Z" fill="#00aeb4"></path><path d="M0 265L64 265L64 445L129 445L129 331L193 331L193 235L257 235L257 127L321 127L321 163L386 163L386 115L450 115L450 127L514 127L514 277L579 277L579 319L643 319L643 409L707 409L707 355L771 355L771 445L836 445L836 367L900 367L900 409L900 41L900 101L836 101L836 35L771 35L771 95L707 95L707 35L643 35L643 107L579 107L579 59L514 59L514 47L450 47L450 53L386 53L386 47L321 47L321 35L257 35L257 131L193 131L193 83L129 83L129 53L64 53L64 101L0 101Z" fill="#0097cb"></path><path d="M0 565L64 565L64 553L129 553L129 379L193 379L193 577L257 577L257 457L321 457L321 463L386 463L386 529L450 529L450 403L514 403L514 421L579 421L579 481L643 481L643 475L707 475L707 571L771 571L771 541L836 541L836 487L900 487L900 535L900 407L900 365L836 365L836 443L771 443L771 353L707 353L707 407L643 407L643 317L579 317L579 275L514 275L514 125L450 125L450 113L386 113L386 161L321 161L321 125L257 125L257 233L193 233L193 329L129 329L129 443L64 443L64 263L0 263Z" fill="#2877ca"></path><path d="M0 601L64 601L64 601L129 601L129 601L193 601L193 601L257 601L257 601L321 601L321 601L386 601L386 601L450 601L450 601L514 601L514 601L579 601L579 601L643 601L643 601L707 601L707 601L771 601L771 601L836 601L836 601L900 601L900 601L900 533L900 485L836 485L836 539L771 539L771 569L707 569L707 473L643 473L643 479L579 479L579 419L514 419L514 401L450 401L450 527L386 527L386 461L321 461L321 455L257 455L257 575L193 575L193 377L129 377L129 551L64 551L64 563L0 563Z" fill="#654db2"></path></svg>