<svg id="visual" viewBox="0 0 900 600" width="900" height="600" xmlns="http://www.w3.org/2000/svg" xmlns:xlink="http://www.w3.org/1999/xlink" version="1.1"><path d="M0 37L64 37L64 139L129 139L129 151L193 151L193 151L257 151L257 133L321 133L321 79L386 79L386 37L450 37L450 43L514 43L514 163L579 163L579 25L643 25L643 43L707 43L707 127L771 127L771 115L836 115L836 175L900 175L900 55L900 0L900 0L836 0L836 0L771 0L771 0L707 0L707 0L643 0L643 0L579 0L579 0L514 0L514 0L450 0L450 0L386 0L386 0L321 0L321 0L257 0L257 0L193 0L193 0L129 0L129 0L64 0L64 0L0 0Z" fill="#00aeb4"></path><path d="M0 283L64 283L64 199L129 199L129 451L193 451L193 349L257 349L257 319L321 319L321 283L386 283L386 433L450 433L450 421L514 421L514 241L579 241L579 415L643 415L643 229L707 229L707 445L771 445L771 271L836 271L836 343L900 343L900 367L900 53L900 173L836 173L836 113L771 113L771 125L707 125L707 41L643 41L643 23L579 23L579 161L514 161L514 41L450 41L450 35L386 35L386 77L321 77L321 131L257 131L257 149L193 149L193 149L129 149L129 137L64 137L64 35L0 35Z" fill="#0097cb"></path><path d="M0 409L64 409L64 469L129 469L129 541L193 541L193 427L257 427L257 541L321 541L321 505L386 505L386 571L450 571L450 547L514 547L514 457L579 457L579 517L643 517L643 379L707 379L707 553L771 553L771 457L836 457L836 487L900 487L900 529L900 365L900 341L836 341L836 269L771 269L771 443L707 443L707 227L643 227L643 413L579 413L579 239L514 239L514 419L450 419L450 431L386 431L386 281L321 281L321 317L257 317L257 347L193 347L193 449L129 449L129 197L64 197L64 281L0 281Z" fill="#2877ca"></path><path d="M0 601L64 601L64 601L129 601L129 601L193 601L193 601L257 601L257 601L321 601L321 601L386 601L386 601L450 601L450 601L514 601L514 601L579 601L579 601L643 601L643 601L707 601L707 601L771 601L771 601L836 601L836 601L900 601L900 601L900 527L900 485L836 485L836 455L771 455L771 551L707 551L707 377L643 377L643 515L579 515L579 455L514 455L514 545L450 545L450 569L386 569L386 503L321 503L321 539L257 539L257 425L193 425L193 539L129 539L129 467L64 467L64 407L0 407Z" fill="#654db2"></path></svg>