<svg id="visual" viewBox="0 0 900 600" width="900" height="600" xmlns="http://www.w3.org/2000/svg" xmlns:xlink="http://www.w3.org/1999/xlink" version="1.1"><path d="M0 169L64 169L64 157L129 157L129 175L193 175L193 43L257 43L257 211L321 211L321 139L386 139L386 211L450 211L450 211L514 211L514 37L579 37L579 163L643 163L643 25L707 25L707 169L771 169L771 37L836 37L836 175L900 175L900 91L900 0L900 0L836 0L836 0L771 0L771 0L707 0L707 0L643 0L643 0L579 0L579 0L514 0L514 0L450 0L450 0L386 0L386 0L321 0L321 0L257 0L257 0L193 0L193 0L129 0L129 0L64 0L64 0L0 0Z" fill="#00aeb4"></path><path d="M0 307L64 307L64 187L129 187L129 343L193 343L193 385L257 385L257 247L321 247L321 271L386 271L386 259L450 259L450 361L514 361L514 151L579 151L579 451L643 451L643 241L707 241L707 367L771 367L771 331L836 331L836 265L900 265L900 181L900 89L900 173L836 173L836 35L771 35L771 167L707 167L707 23L643 23L643 161L579 161L579 35L514 35L514 209L450 209L450 209L386 209L386 137L321 137L321 209L257 209L257 41L193 41L193 173L129 173L129 155L64 155L64 167L0 167Z" fill="#0097cb"></path><path d="M0 439L64 439L64 319L129 319L129 409L193 409L193 529L257 529L257 277L321 277L321 349L386 349L386 373L450 373L450 397L514 397L514 301L579 301L579 523L643 523L643 307L707 307L707 499L771 499L771 505L836 505L836 307L900 307L900 325L900 179L900 263L836 263L836 329L771 329L771 365L707 365L707 239L643 239L643 449L579 449L579 149L514 149L514 359L450 359L450 257L386 257L386 269L321 269L321 245L257 245L257 383L193 383L193 341L129 341L129 185L64 185L64 305L0 305Z" fill="#2877ca"></path><path d="M0 601L64 601L64 601L129 601L129 601L193 601L193 601L257 601L257 601L321 601L321 601L386 601L386 601L450 601L450 601L514 601L514 601L579 601L579 601L643 601L643 601L707 601L707 601L771 601L771 601L836 601L836 601L900 601L900 601L900 323L900 305L836 305L836 503L771 503L771 497L707 497L707 305L643 305L643 521L579 521L579 299L514 299L514 395L450 395L450 371L386 371L386 347L321 347L321 275L257 275L257 527L193 527L193 407L129 407L129 317L64 317L64 437L0 437Z" fill="#654db2"></path></svg>