<svg id="visual" viewBox="0 0 900 600" width="900" height="600" xmlns="http://www.w3.org/2000/svg" xmlns:xlink="http://www.w3.org/1999/xlink" version="1.1"><path d="M0 175L64 175L64 85L129 85L129 211L193 211L193 163L257 163L257 235L321 235L321 19L386 19L386 193L450 193L450 157L514 157L514 241L579 241L579 85L643 85L643 79L707 79L707 115L771 115L771 235L836 235L836 133L900 133L900 37L900 0L900 0L836 0L836 0L771 0L771 0L707 0L707 0L643 0L643 0L579 0L579 0L514 0L514 0L450 0L450 0L386 0L386 0L321 0L321 0L257 0L257 0L193 0L193 0L129 0L129 0L64 0L64 0L0 0Z" fill="#00aeb4"></path><path d="M0 361L64 361L64 265L129 265L129 361L193 361L193 391L257 391L257 325L321 325L321 175L386 175L386 433L450 433L450 403L514 403L514 331L579 331L579 295L643 295L643 127L707 127L707 217L771 217L771 343L836 343L836 247L900 247L900 103L900 35L900 131L836 131L836 233L771 233L771 113L707 113L707 77L643 77L643 83L579 83L579 239L514 239L514 155L450 155L450 191L386 191L386 17L321 17L321 233L257 233L257 161L193 161L193 209L129 209L129 83L64 83L64 173L0 173Z" fill="#0097cb"></path><path d="M0 469L64 469L64 433L129 433L129 529L193 529L193 511L257 511L257 553L321 553L321 469L386 469L386 487L450 487L450 463L514 463L514 571L579 571L579 553L643 553L643 529L707 529L707 427L771 427L771 541L836 541L836 433L900 433L900 571L900 101L900 245L836 245L836 341L771 341L771 215L707 215L707 125L643 125L643 293L579 293L579 329L514 329L514 401L450 401L450 431L386 431L386 173L321 173L321 323L257 323L257 389L193 389L193 359L129 359L129 263L64 263L64 359L0 359Z" fill="#2877ca"></path><path d="M0 601L64 601L64 601L129 601L129 601L193 601L193 601L257 601L257 601L321 601L321 601L386 601L386 601L450 601L450 601L514 601L514 601L579 601L579 601L643 601L643 601L707 601L707 601L771 601L771 601L836 601L836 601L900 601L900 601L900 569L900 431L836 431L836 539L771 539L771 425L707 425L707 527L643 527L643 551L579 551L579 569L514 569L514 461L450 461L450 485L386 485L386 467L321 467L321 551L257 551L257 509L193 509L193 527L129 527L129 431L64 431L64 467L0 467Z" fill="#654db2"></path></svg>